<svg xmlns="http://www.w3.org/2000/svg" viewBox="0 0 400 400" role="img" aria-label="Silent mutation prevention: visible review blocks hidden overwrites">
  <defs>
    <radialGradient id="bg_smp" cx="50%" cy="50%" r="65%">
      <stop offset="0%" stop-color="#c8860a"/>
      <stop offset="55%" stop-color="#7a4f08"/>
      <stop offset="100%" stop-color="#2e1800"/>
    </radialGradient>
    <radialGradient id="glow_smp" cx="50%" cy="50%" r="42%">
      <stop offset="0%" stop-color="#ffe8a0" stop-opacity="0.25"/>
      <stop offset="100%" stop-color="#c8860a" stop-opacity="0"/>
    </radialGradient>
  </defs>
  <rect width="400" height="400" fill="url(#bg_smp)"/>
  <rect width="400" height="400" fill="url(#glow_smp)"/>

  <ellipse cx="160" cy="164" rx="70" ry="40" fill="none" stroke="#f4e8c1" stroke-width="3" opacity="0.55"/>
  <circle cx="160" cy="164" r="16" fill="none" stroke="#f4e8c1" stroke-width="3"/>
  <circle cx="160" cy="164" r="7" fill="#f4e8c1"/>

  <rect x="118" y="208" width="124" height="118" rx="8" fill="#f4e8c1" stroke="#4a3510" stroke-width="3"/>
  <path d="M222 208 L242 208 L222 228 Z" fill="#e0cc99" stroke="#4a3510" stroke-width="2" stroke-linejoin="round"/>
  <line x1="136" y1="242" x2="214" y2="242" stroke="#6b4e1f" stroke-width="2"/>
  <line x1="136" y1="258" x2="214" y2="258" stroke="#6b4e1f" stroke-width="2"/>
  <line x1="136" y1="274" x2="206" y2="274" stroke="#6b4e1f" stroke-width="2"/>
  <line x1="136" y1="290" x2="214" y2="290" stroke="#6b4e1f" stroke-width="2"/>

  <path d="M304 118 C286 124 270 138 260 154 C248 174 242 190 226 204" fill="none" stroke="#f4e8c1" stroke-width="3" stroke-linecap="round" stroke-dasharray="10 10" opacity="0.65"/>
  <path d="M306 108 L330 112 L316 132" fill="none" stroke="#f4e8c1" stroke-width="3" stroke-linecap="round" stroke-linejoin="round" opacity="0.75"/>

  <path d="M286 148 C254 166 236 190 236 216 L236 278 C236 304 260 324 286 334 C312 324 336 304 336 278 L336 216 C336 190 318 166 286 148 Z" fill="#f4e8c1" stroke="#4a3510" stroke-width="3.5"/>
  <polyline points="270,244 282,258 306,228" fill="none" stroke="#4a3510" stroke-width="4" stroke-linecap="round" stroke-linejoin="round"/>
</svg>
