<svg xmlns="http://www.w3.org/2000/svg" viewBox="0 0 400 400" role="img" aria-label="Deterministic state: identical inputs produce the same state every time">
  <defs>
    <radialGradient id="bg_ds" cx="50%" cy="50%" r="65%">
      <stop offset="0%" stop-color="#c8860a"/>
      <stop offset="55%" stop-color="#7a4f08"/>
      <stop offset="100%" stop-color="#2e1800"/>
    </radialGradient>
    <radialGradient id="glow_ds" cx="50%" cy="50%" r="42%">
      <stop offset="0%" stop-color="#ffe8a0" stop-opacity="0.25"/>
      <stop offset="100%" stop-color="#c8860a" stop-opacity="0"/>
    </radialGradient>
  </defs>
  <rect width="400" height="400" fill="url(#bg_ds)"/>
  <rect width="400" height="400" fill="url(#glow_ds)"/>

  <rect x="64" y="100" width="84" height="110" rx="8" fill="#f4e8c1" stroke="#4a3510" stroke-width="3"/>
  <path d="M130 100 L148 100 L130 118 Z" fill="#e0cc99" stroke="#4a3510" stroke-width="2" stroke-linejoin="round"/>
  <line x1="82" y1="132" x2="128" y2="132" stroke="#6b4e1f" stroke-width="2"/>
  <line x1="82" y1="146" x2="128" y2="146" stroke="#6b4e1f" stroke-width="2"/>
  <line x1="82" y1="160" x2="122" y2="160" stroke="#6b4e1f" stroke-width="2"/>

  <rect x="252" y="100" width="84" height="110" rx="8" fill="#f4e8c1" stroke="#4a3510" stroke-width="3"/>
  <path d="M318 100 L336 100 L318 118 Z" fill="#e0cc99" stroke="#4a3510" stroke-width="2" stroke-linejoin="round"/>
  <line x1="270" y1="132" x2="316" y2="132" stroke="#6b4e1f" stroke-width="2"/>
  <line x1="270" y1="146" x2="316" y2="146" stroke="#6b4e1f" stroke-width="2"/>
  <line x1="270" y1="160" x2="310" y2="160" stroke="#6b4e1f" stroke-width="2"/>

  <line x1="168" y1="142" x2="232" y2="142" stroke="#f4e8c1" stroke-width="5" stroke-linecap="round"/>
  <line x1="168" y1="158" x2="232" y2="158" stroke="#f4e8c1" stroke-width="5" stroke-linecap="round"/>

  <path d="M108 222 C108 252 132 266 168 278" fill="none" stroke="#f4e8c1" stroke-width="3" stroke-linecap="round" opacity="0.55"/>
  <path d="M292 222 C292 252 268 266 232 278" fill="none" stroke="#f4e8c1" stroke-width="3" stroke-linecap="round" opacity="0.55"/>

  <rect x="128" y="266" width="144" height="84" rx="10" fill="#f4e8c1" stroke="#4a3510" stroke-width="3.2"/>
  <path d="M244 266 L272 266 L244 292 Z" fill="#e0cc99" stroke="#4a3510" stroke-width="2" stroke-linejoin="round"/>
  <line x1="148" y1="298" x2="226" y2="298" stroke="#6b4e1f" stroke-width="2.2"/>
  <line x1="148" y1="314" x2="216" y2="314" stroke="#6b4e1f" stroke-width="2.2"/>
  <line x1="148" y1="330" x2="224" y2="330" stroke="#6b4e1f" stroke-width="2.2"/>

  <circle cx="200" cy="238" r="18" fill="#f4e8c1" stroke="#4a3510" stroke-width="2.5"/>
  <polyline points="190,238 198,246 212,230" fill="none" stroke="#4a3510" stroke-width="2.8" stroke-linecap="round" stroke-linejoin="round"/>
</svg>
