<svg xmlns="http://www.w3.org/2000/svg" viewBox="0 0 480 320" role="img" aria-label="Engraved deep-dive memory guarantees illustration">
  <rect width="480" height="320" fill="#000"/>
  <g fill="none" stroke="#fff" stroke-linecap="round" stroke-linejoin="round">
    <path d="M240 44l124 54v98c0 47-29 87-78 106l-46 18-46-18c-49-19-78-59-78-106V98l124-54z" stroke-width="2.7"/>
    <path d="M240 62l104 45v85c0 39-24 72-63 88l-41 16-41-16c-39-16-63-49-63-88v-85l104-45z" stroke-width="1.8" opacity=".92"/>
    <path d="M240 88v190M156 126h168M148 164h184M144 202h192M160 240h160" stroke-width="1.2" opacity=".75"/>
    <path d="M240 104l42 22v38l-42 22-42-22v-38l42-22z" stroke-width="1.9"/>
    <path d="M240 186l28 14v26l-28 14-28-14v-26l28-14z" stroke-width="1.5" opacity=".95"/>
    <path d="M240 240l17 9v15l-17 9-17-9v-15l17-9z" stroke-width="1.3" opacity=".9"/>
    <path d="M74 236l78-78M84 246l78-78M94 256l78-78M104 266l78-78M114 276l78-78M124 286l78-78" stroke-width=".62" opacity=".35"/>
    <path d="M288 166l96-96M302 180l96-96M316 194l96-96M330 208l96-96M344 222l96-96M358 236l96-96" stroke-width=".62" opacity=".35"/>
    <circle cx="240" cy="164" r="76" stroke-width="1.2" opacity=".38"/>
    <circle cx="240" cy="164" r="56" stroke-width="1.2" opacity=".33"/>
    <path d="M60 280h360" stroke-width=".9" opacity=".55"/>
  </g>
</svg>
